<svg width="1024" height="1024" viewBox="0 0 1024 1024" xmlns="http://www.w3.org/2000/svg" fill="none">
  <defs>
    <linearGradient id="g1" x1="0" y1="0" x2="1" y2="1">
      <stop offset="0%" stop-color="#6C5CE7"/>
      <stop offset="100%" stop-color="#00D4FF"/>
    </linearGradient>
    <linearGradient id="g2" x1="0" y1="1" x2="1" y2="0">
      <stop offset="0%" stop-color="#FF8A00"/>
      <stop offset="100%" stop-color="#FF2E63"/>
    </linearGradient>
    <filter id="shadow" x="-20%" y="-20%" width="140%" height="140%">
      <feDropShadow dx="0" dy="8" stdDeviation="12" flood-color="#000" flood-opacity="0.2"/>
    </filter>
  </defs>

  <!-- Rounded square background -->
  <rect x="64" y="64" width="896" height="896" rx="200" fill="url(#g1)"/>

  <!-- Stylized converter arrows forming a P and C -->
  <g filter="url(#shadow)">
    <!-- Outer circular arrow (C) -->
    <path d="M742 512c0 127-103 230-230 230s-230-103-230-230 103-230 230-230" stroke="#fff" stroke-width="64" stroke-linecap="round" stroke-linejoin="round"/>
    <path d="M512 282l-42 42 42 42" fill="none" stroke="#fff" stroke-width="64" stroke-linecap="round" stroke-linejoin="round"/>

    <!-- Inner arrow (P stem) -->
    <path d="M420 300v424" stroke="#fff" stroke-width="64" stroke-linecap="round"/>
    <!-- P bowl using gradient accent -->
    <path d="M420 300h160c66 0 120 54 120 120s-54 120-120 120H420" fill="none" stroke="url(#g2)" stroke-width="64" stroke-linecap="round" stroke-linejoin="round"/>
  </g>

  <!-- Subtle foreground shine -->
  <path d="M96 320c80-120 240-208 416-208s336 88 416 208v0c-144-64-288-96-416-96S240 256 96 320z" fill="#fff" fill-opacity="0.08"/>
</svg>
